<svg fill="none" height="32" viewBox="0 0 32 32" width="32" xmlns="http://www.w3.org/2000/svg"><path d="m0 0h32v32h-32z" fill="#ee3643"/><path clip-rule="evenodd" d="m6 5.99561c-1 .00439-1 1.00439-1 1.00439v5c0 .9626 1 .9967 1 .9967h2.81542c.61988 0 .51288.4373.51288.4373s-.79095 4.2656-.87617 4.9872c-.08553.7223-.59842 1.1817-.59842 1.1817s-1.29822.3937-1.57597.5468c-.27775.1532-.27775.8504-.27775.8504h11.00001v-.3694c0-.481-2.5636-1.0278-3.3969-1.1154-.8335-.0872-.6625-.6564-.6625-.6564l.3418-2.8588h.9617l.3536-2h-.9617l.1061-1h2.7579c1.8597-.1971 3.5-1.1773 3.5-1.1773v-4.3228c-1.4746-1.0718-4.1199-1.50439-4.1199-1.50439zm18.6213 2.70436h4.0371c.1842 0 .3338.2924.3338.74223s-.1496.8578-.3338.8578h-4.0371c-.199.7498-.6638 1.7-1.2052 1.7h-2.4161v-5.00003h2.4161c.5417 0 1.0062.95017 1.2052 1.7zm-18.02288 17.29993c-.59842 0-.59842-.6725-.59842-.6725v-3.3276h11v3.3496c0 .5901-.641.6505-.641.6505zm9.40158-18.49226v-.01526c0-.2708-.1408-.49237-.3128-.49237h-9.3744c-.17204 0-.3128.22157-.3128.49237v.01526c0 .2708.14076.49237.3128.49237h9.3744c.172 0 .3128-.22157.3128-.49237z" fill="#fff" fill-rule="evenodd"/></svg>